<?xml version="1.0" encoding="UTF-8" standalone="no"?>
<!DOCTYPE svg PUBLIC "-//W3C//DTD SVG 1.1//EN" "http://www.w3.org/Graphics/SVG/1.1/DTD/svg11.dtd">
<svg width="100%" height="100%" viewBox="0 0 289 110" version="1.1" xmlns="http://www.w3.org/2000/svg" xmlns:xlink="http://www.w3.org/1999/xlink" xml:space="preserve" xmlns:serif="http://www.serif.com/" style="fill-rule:evenodd;clip-rule:evenodd;stroke-linejoin:round;stroke-miterlimit:2;">
    <g transform="matrix(1,0,0,1,-293.249,-133.118)">
        <g>
            <path d="M581.251,133.118L293.249,133.118C293.503,145.091 295.506,158.124 298.175,171.042C304.875,203.145 315.74,234.452 338.842,239.71C361.861,244.895 397.109,223.872 421.84,213.308C446.487,202.67 460.616,202.489 483.437,201.488C506.183,200.571 537.629,198.993 558.462,182.855C574.168,170.584 583.885,149.966 581.251,133.118Z" style="fill:rgb(0,97,82);fill-rule:nonzero;"/>
            <path d="M573.603,133.118L296.826,133.118C296.666,147.59 300.476,164.305 305.433,180.713C314.598,210.821 327.674,239.81 350.208,242.85C372.655,245.825 404.537,222.702 427.267,210.478C449.909,198.191 463.399,196.803 485.125,193.884C506.786,191.052 536.707,186.84 555.232,169.624C565.593,159.914 572.404,146.092 573.603,133.118Z" style="fill:rgb(255,180,70);fill-rule:nonzero;"/>
            <path d="M563.721,133.118L306.917,133.118C306.947,144.648 309,157.426 311.769,170.07C318.084,198.621 328.104,226.417 348.757,230.86C369.334,235.237 400.536,216.12 422.472,206.439C444.333,196.692 456.929,196.38 477.264,195.246C497.533,194.186 525.552,192.445 543.955,177.836C557.867,166.696 566.32,148.135 563.721,133.118Z" style="fill:rgb(151,176,242);fill-rule:nonzero;"/>
        </g>
    </g>
</svg>
