<?xml version="1.0" encoding="UTF-8" standalone="no"?>
<!DOCTYPE svg PUBLIC "-//W3C//DTD SVG 1.1//EN" "http://www.w3.org/Graphics/SVG/1.1/DTD/svg11.dtd">
<svg width="100%" height="100%" viewBox="0 0 289 194" version="1.1" xmlns="http://www.w3.org/2000/svg" xmlns:xlink="http://www.w3.org/1999/xlink" xml:space="preserve" xmlns:serif="http://www.serif.com/" style="fill-rule:evenodd;clip-rule:evenodd;stroke-linejoin:round;stroke-miterlimit:2;">
    <g transform="matrix(1,0,0,1,-291.45,-56.0852)">
        <g transform="matrix(-1,0,0,1,871.468,0)">
            <g transform="matrix(0.906232,-0.66079,0.66079,0.906232,433.916,138.588)">
                <path d="M43.8,-59C54,-53 57.4,-36.4 72.5,-17.2C87.5,2.1 114.1,23.9 116.9,45C119.7,66.1 98.6,86.4 75.2,103.8C51.7,121.2 25.9,135.6 7.4,125.4C-11,115.2 -22,80.3 -32.2,58.6C-42.3,36.9 -51.6,28.4 -66.2,14.2C-80.8,0.1 -100.8,-19.6 -105.1,-42.7C-109.3,-65.8 -97.9,-92.4 -77.7,-95.2C-57.6,-98 -28.8,-77 -6,-68.8C16.8,-60.5 33.7,-65.1 43.8,-59" style="fill:rgb(0,97,82);fill-rule:nonzero;"/>
            </g>
            <g transform="matrix(0.922993,-0.553664,0.553664,0.922993,435.608,137.709)">
                <path d="M43.8,-59C54,-53 57.4,-36.4 72.5,-17.2C87.5,2.1 114.1,23.9 116.9,45C119.7,66.1 98.6,86.4 75.2,103.8C51.7,121.2 25.9,135.6 7.4,125.4C-11,115.2 -22,80.3 -32.2,58.6C-42.3,36.9 -51.6,28.4 -66.2,14.2C-80.8,0.1 -100.8,-19.6 -105.1,-42.7C-109.3,-65.8 -97.9,-92.4 -77.7,-95.2C-57.6,-98 -28.8,-77 -6,-68.8C16.8,-60.5 33.7,-65.1 43.8,-59" style="fill:rgb(255,180,70);fill-rule:nonzero;"/>
            </g>
            <g transform="matrix(0.814977,-0.579493,0.579493,0.814977,435.782,139.654)">
                <path d="M43.8,-59C54,-53 57.4,-36.4 72.5,-17.2C87.5,2.1 114.1,23.9 116.9,45C119.7,66.1 98.6,86.4 75.2,103.8C51.7,121.2 25.9,135.6 7.4,125.4C-11,115.2 -22,80.3 -32.2,58.6C-42.3,36.9 -51.6,28.4 -66.2,14.2C-80.8,0.1 -100.8,-19.6 -105.1,-42.7C-109.3,-65.8 -97.9,-92.4 -77.7,-95.2C-57.6,-98 -28.8,-77 -6,-68.8C16.8,-60.5 33.7,-65.1 43.8,-59" style="fill:rgb(151,176,242);fill-rule:nonzero;"/>
            </g>
        </g>
    </g>
</svg>
