<?xml version="1.0" encoding="UTF-8" standalone="no"?>
<!DOCTYPE svg PUBLIC "-//W3C//DTD SVG 1.1//EN" "http://www.w3.org/Graphics/SVG/1.1/DTD/svg11.dtd">
<svg width="100%" height="100%" viewBox="0 0 522 441" version="1.1" xmlns="http://www.w3.org/2000/svg" xmlns:xlink="http://www.w3.org/1999/xlink" xml:space="preserve" xmlns:serif="http://www.serif.com/" style="fill-rule:evenodd;clip-rule:evenodd;stroke-linejoin:round;stroke-miterlimit:2;">
    <g transform="matrix(1,0,0,1,-189.145,-79.978)">
        <g transform="matrix(1,0,0,1,452.271,255.216)">
            <path d="M128.1,-103.3C177.9,-78.3 238.5,-39.1 254.3,15.8C270,70.7 241.1,141.4 191.3,191.1C141.4,240.8 70.7,269.4 5.2,264.2C-60.3,259 -120.7,220 -170.2,170.3C-219.7,120.7 -258.3,60.3 -262.7,-4.4C-267.1,-69.1 -237.1,-138.1 -187.6,-163.1C-138.1,-188.1 -69.1,-169.1 -15,-154.1C39.1,-139.1 78.3,-128.3 128.1,-103.3" style="fill:rgb(151,176,242);fill-rule:nonzero;"/>
        </g>
    </g>
</svg>
