<?xml version="1.0" encoding="UTF-8" standalone="no"?>
<!DOCTYPE svg PUBLIC "-//W3C//DTD SVG 1.1//EN" "http://www.w3.org/Graphics/SVG/1.1/DTD/svg11.dtd">
<svg width="100%" height="100%" viewBox="0 0 256 256" version="1.1" xmlns="http://www.w3.org/2000/svg" xmlns:xlink="http://www.w3.org/1999/xlink" xml:space="preserve" xmlns:serif="http://www.serif.com/" style="fill-rule:evenodd;clip-rule:evenodd;stroke-linejoin:round;stroke-miterlimit:2;">
    <path d="M128,0C198.645,0 256,57.355 256,128C256,198.645 198.645,256 128,256C57.355,256 0,198.645 0,128C0,57.355 57.355,0 128,0ZM167.267,153.485C160.596,163.253 150.352,170.162 138.678,172.782C119.381,177.07 99.846,169.209 89.125,153.962L174.652,134.664L188.47,131.567L215.152,125.611C214.914,119.894 214.199,114.176 213.008,108.697C202.287,62.717 155.355,33.891 108.422,44.611C61.49,55.332 32.187,101.073 43.146,147.291C54.105,193.509 100.799,222.097 147.731,211.376C175.367,205.182 196.808,186.6 207.767,163.015L167.267,153.485ZM117.475,82.729C136.772,78.441 156.07,86.303 166.79,101.311L81.502,120.609C84.361,102.264 98.178,87.017 117.475,82.729Z" style="fill:white;"/>
</svg>
