<?xml version="1.0" encoding="UTF-8" standalone="no"?>
<!DOCTYPE svg PUBLIC "-//W3C//DTD SVG 1.1//EN" "http://www.w3.org/Graphics/SVG/1.1/DTD/svg11.dtd">
<svg width="100%" height="100%" viewBox="0 0 418 444" version="1.1" xmlns="http://www.w3.org/2000/svg" xmlns:xlink="http://www.w3.org/1999/xlink" xml:space="preserve" xmlns:serif="http://www.serif.com/" style="fill-rule:evenodd;clip-rule:evenodd;stroke-linejoin:round;stroke-miterlimit:2;">
    <g transform="matrix(1,0,0,1,-241.352,-78.1907)">
        <g transform="matrix(1,0,0,1,455.295,305.972)">
            <path d="M175.9,-181.8C210.4,-141.4 208.7,-70.7 191,-17.7C173.4,35.4 139.7,70.7 105.2,112.9C70.7,155 35.4,204 -9.9,213.9C-55.2,223.8 -110.3,194.6 -149.5,152.5C-188.6,110.3 -211.8,55.2 -213.8,-2C-215.8,-59.2 -196.7,-118.3 -157.5,-158.7C-118.3,-199 -59.2,-220.5 5.8,-226.3C70.7,-232 141.4,-222.1 175.9,-181.8" style="fill:rgb(0,97,82);fill-rule:nonzero;"/>
        </g>
    </g>
</svg>
