<?xml version="1.0" encoding="UTF-8" standalone="no"?>
<!DOCTYPE svg PUBLIC "-//W3C//DTD SVG 1.1//EN" "http://www.w3.org/Graphics/SVG/1.1/DTD/svg11.dtd">
<svg width="100%" height="100%" viewBox="0 0 24 20" version="1.1" xmlns="http://www.w3.org/2000/svg" xmlns:xlink="http://www.w3.org/1999/xlink" xml:space="preserve" xmlns:serif="http://www.serif.com/" style="fill-rule:evenodd;clip-rule:evenodd;stroke-linejoin:round;stroke-miterlimit:2;">
    <g transform="matrix(1,0,0,1,-18.748,0)">
        <path id="SVGID_1_" d="M33.989,19.424C33.989,19.424 27.631,19.056 24.335,16.318C23.815,15.886 23.302,15.375 22.803,14.764C17.914,8.778 18.813,0 18.813,0C18.813,0 27.629,0.382 32.842,6.088C34.747,8.173 35.403,10.256 35.47,12.062L37.364,7.663C37.614,7.076 37.977,6.632 38.46,6.33C38.939,6.028 39.49,5.889 40.115,5.913L42.371,5.998C42.371,5.998 38.944,14.312 37.966,16.062C35.872,19.811 33.989,19.424 33.989,19.424Z" style="fill:rgb(43,205,0);fill-rule:nonzero;"/>
    </g>
</svg>
