<?xml version="1.0" encoding="utf-8"?>
<!-- Generator: Adobe Illustrator 15.0.0, SVG Export Plug-In . SVG Version: 6.00 Build 0)  -->
<!DOCTYPE svg PUBLIC "-//W3C//DTD SVG 1.1//EN" "http://www.w3.org/Graphics/SVG/1.1/DTD/svg11.dtd">
<svg version="1.1" id="Layer_1" xmlns="http://www.w3.org/2000/svg" xmlns:xlink="http://www.w3.org/1999/xlink" x="0px" y="0px"
	 width="231.378px" height="80.744px" viewBox="0 0 231.378 80.744" enable-background="new 0 0 231.378 80.744"
	 xml:space="preserve">
<path fill="#FFFFFF" d="M93.874,37.009c0.123,0,0.247,0.023,0.371,0.07c0.124,0.046,0.242,0.126,0.356,0.24l2.077,2.185
	c-0.909,1.188-2.048,2.084-3.417,2.689c-1.369,0.604-2.989,0.906-4.858,0.906c-1.715,0-3.252-0.293-4.611-0.877
	c-1.357-0.582-2.51-1.389-3.455-2.417s-1.672-2.247-2.178-3.657c-0.506-1.41-0.759-2.942-0.759-4.595
	c0-1.684,0.274-3.231,0.821-4.641c0.548-1.41,1.317-2.627,2.309-3.65c0.992-1.022,2.181-1.818,3.564-2.386
	c1.385-0.568,2.908-0.853,4.572-0.853c0.847,0,1.645,0.075,2.394,0.225s1.449,0.357,2.1,0.62c0.651,0.263,1.25,0.581,1.798,0.953
	s1.032,0.775,1.456,1.209l-1.766,2.371c-0.114,0.145-0.248,0.276-0.403,0.395c-0.154,0.119-0.371,0.178-0.65,0.178
	c-0.187,0-0.362-0.041-0.527-0.124c-0.165-0.082-0.341-0.183-0.527-0.302c-0.186-0.119-0.39-0.248-0.611-0.387
	c-0.223-0.14-0.486-0.269-0.79-0.388c-0.306-0.118-0.662-0.219-1.07-0.302s-0.885-0.124-1.433-0.124c-0.868,0-1.661,0.16-2.379,0.48
	c-0.719,0.321-1.338,0.789-1.859,1.403c-0.521,0.615-0.925,1.369-1.209,2.262c-0.284,0.894-0.426,1.914-0.426,3.061
	c0,1.157,0.157,2.185,0.473,3.084s0.743,1.655,1.286,2.27c0.542,0.615,1.175,1.083,1.898,1.402c0.723,0.321,1.497,0.481,2.323,0.481
	c0.477,0,0.91-0.023,1.303-0.07c0.393-0.046,0.76-0.124,1.1-0.232c0.341-0.109,0.661-0.253,0.961-0.434s0.605-0.411,0.915-0.69
	c0.123-0.103,0.258-0.188,0.403-0.256C93.568,37.043,93.719,37.009,93.874,37.009"/>
<path fill="#FFFFFF" d="M120.229,31.554c0,1.633-0.281,3.151-0.845,4.556c-0.563,1.405-1.356,2.627-2.378,3.665
	c-1.023,1.038-2.255,1.852-3.697,2.442c-1.44,0.588-3.04,0.883-4.796,0.883s-3.356-0.295-4.804-0.883
	c-1.446-0.59-2.684-1.404-3.711-2.442c-1.028-1.038-1.824-2.26-2.387-3.665c-0.563-1.405-0.845-2.923-0.845-4.556
	c0-1.632,0.281-3.151,0.845-4.556c0.562-1.405,1.358-2.624,2.387-3.657c1.027-1.033,2.265-1.844,3.711-2.433
	c1.447-0.589,3.048-0.884,4.804-0.884s3.355,0.298,4.796,0.891c1.442,0.595,2.674,1.409,3.697,2.441
	c1.021,1.034,1.814,2.253,2.378,3.658S120.229,29.932,120.229,31.554 M114.868,31.554c0-1.116-0.146-2.12-0.435-3.014
	c-0.289-0.893-0.705-1.65-1.247-2.27c-0.543-0.62-1.207-1.095-1.992-1.426c-0.784-0.33-1.679-0.496-2.681-0.496
	c-1.012,0-1.913,0.166-2.704,0.496c-0.79,0.331-1.456,0.806-1.999,1.426c-0.542,0.62-0.958,1.377-1.247,2.27
	c-0.29,0.894-0.434,1.898-0.434,3.014c0,1.126,0.144,2.136,0.434,3.03c0.289,0.894,0.705,1.65,1.247,2.27
	c0.543,0.62,1.209,1.092,1.999,1.418c0.791,0.325,1.692,0.488,2.704,0.488c1.002,0,1.896-0.163,2.681-0.488
	c0.785-0.326,1.449-0.798,1.992-1.418c0.542-0.62,0.958-1.376,1.247-2.27S114.868,32.68,114.868,31.554"/>
<path fill="#FFFFFF" d="M143.515,31.554c0,1.633-0.281,3.138-0.845,4.517c-0.562,1.38-1.355,2.573-2.378,3.58
	c-1.022,1.007-2.255,1.793-3.696,2.356c-1.441,0.562-3.04,0.844-4.797,0.844h-8.771V20.273h8.771c1.757,0,3.355,0.284,4.797,0.852
	c1.441,0.568,2.674,1.353,3.696,2.355s1.815,2.193,2.378,3.572C143.233,28.431,143.515,29.932,143.515,31.554 M138.153,31.554
	c0-1.116-0.146-2.123-0.435-3.022c-0.289-0.898-0.705-1.66-1.247-2.286c-0.543-0.625-1.205-1.105-1.991-1.441
	c-0.785-0.335-1.68-0.503-2.682-0.503h-3.502v14.52h3.502c1.002,0,1.896-0.168,2.682-0.504c0.786-0.335,1.448-0.816,1.991-1.441
	c0.542-0.625,0.958-1.387,1.247-2.286C138.008,33.693,138.153,32.68,138.153,31.554"/>
<polygon fill="#FFFFFF" points="151.592,24.302 151.592,29.571 158.689,29.571 158.689,33.445 151.592,33.445 151.592,38.822
	160.858,38.822 160.858,42.851 146.322,42.851 146.322,20.273 160.858,20.273 160.858,24.302 "/>
<path fill="#FFFFFF" d="M176.491,30.968l-1.367,11.353l-0.683,2.734c-0.132,0.399-0.312,0.708-0.544,0.927
	c-0.233,0.218-0.563,0.328-0.99,0.328h-1.2l1.854-15.314l-1.24-0.195c-0.195-0.047-0.352-0.128-0.467-0.245
	c-0.117-0.116-0.161-0.29-0.134-0.523l0.153-1.213h1.953l0.152-1.199c0.104-0.809,0.312-1.534,0.629-2.176
	c0.315-0.642,0.716-1.186,1.199-1.632c0.483-0.446,1.039-0.788,1.666-1.025c0.628-0.237,1.305-0.356,2.03-0.356
	c0.576,0,1.115,0.093,1.617,0.279l-0.278,1.562c-0.019,0.103-0.061,0.179-0.126,0.231c-0.064,0.051-0.15,0.086-0.258,0.104
	c-0.107,0.019-0.226,0.028-0.356,0.028h-0.403c-0.392,0-0.746,0.056-1.067,0.167c-0.321,0.112-0.606,0.289-0.857,0.531
	c-0.251,0.241-0.46,0.557-0.627,0.948c-0.168,0.39-0.284,0.869-0.35,1.436l-0.14,1.102h3.362l-0.279,2.148H176.491z"/>
<path fill="#FFFFFF" d="M185.194,43.061c-0.781,0-1.502-0.133-2.162-0.396c-0.66-0.267-1.23-0.652-1.708-1.158
	c-0.48-0.507-0.854-1.13-1.123-1.87c-0.271-0.739-0.405-1.578-0.405-2.517c0-1.218,0.193-2.357,0.579-3.417
	c0.386-1.061,0.914-1.983,1.583-2.769c0.67-0.786,1.453-1.404,2.35-1.855c0.897-0.451,1.857-0.676,2.88-0.676
	c0.781,0,1.502,0.132,2.162,0.397s1.228,0.651,1.702,1.158c0.475,0.507,0.846,1.13,1.115,1.869c0.27,0.739,0.405,1.578,0.405,2.517
	c0,0.8-0.089,1.572-0.266,2.315c-0.177,0.744-0.423,1.439-0.739,2.085c-0.316,0.647-0.699,1.235-1.15,1.765
	c-0.451,0.53-0.948,0.983-1.492,1.359c-0.544,0.377-1.132,0.67-1.765,0.879C186.528,42.957,185.872,43.061,185.194,43.061
	 M185.459,40.717c0.623,0,1.189-0.174,1.701-0.523s0.945-0.816,1.304-1.402s0.635-1.262,0.83-2.029
	c0.196-0.767,0.293-1.569,0.293-2.406c0-1.227-0.225-2.136-0.676-2.726c-0.451-0.591-1.118-0.886-2.002-0.886
	c-0.632,0-1.202,0.172-1.708,0.516c-0.507,0.344-0.938,0.804-1.29,1.38c-0.354,0.577-0.628,1.251-0.823,2.023
	s-0.293,1.581-0.293,2.427C182.795,39.508,183.683,40.717,185.459,40.717"/>
<path fill="#FFFFFF" d="M198.128,32.293c0.363-0.753,0.755-1.399,1.179-1.939c0.423-0.539,0.864-0.962,1.325-1.269
	c0.46-0.307,0.935-0.488,1.422-0.544c0.488-0.055,0.979,0.024,1.473,0.237l-0.545,2.874c-1.181-0.475-2.216-0.323-3.104,0.453
	c-0.888,0.776-1.601,2.243-2.14,4.4l-0.753,6.346h-2.93l1.715-14.254h1.507c0.325,0,0.573,0.082,0.747,0.244
	c0.172,0.163,0.257,0.417,0.257,0.76L198.128,32.293z"/>
<path fill="#FFFFFF" d="M100.816,64.563c0,1.633-0.282,3.151-0.846,4.556c-0.562,1.405-1.355,2.627-2.378,3.666
	c-1.022,1.037-2.255,1.852-3.697,2.44c-1.44,0.589-3.039,0.883-4.796,0.883c-1.756,0-3.356-0.294-4.804-0.883
	c-1.446-0.589-2.683-1.403-3.711-2.44c-1.028-1.039-1.824-2.261-2.386-3.666c-0.564-1.404-0.845-2.923-0.845-4.556
	c0-1.632,0.28-3.151,0.845-4.556c0.562-1.405,1.357-2.625,2.386-3.657c1.028-1.033,2.265-1.845,3.711-2.433
	c1.447-0.59,3.048-0.885,4.804-0.885c1.757,0,3.355,0.299,4.796,0.891c1.442,0.596,2.675,1.408,3.697,2.441
	c1.022,1.034,1.815,2.254,2.378,3.658C100.534,61.429,100.816,62.941,100.816,64.563 M95.454,64.563c0-1.116-0.146-2.12-0.434-3.015
	c-0.289-0.893-0.705-1.649-1.247-2.27c-0.544-0.619-1.207-1.095-1.992-1.426c-0.785-0.33-1.68-0.496-2.682-0.496
	c-1.012,0-1.913,0.166-2.704,0.496c-0.789,0.331-1.455,0.807-1.998,1.426c-0.543,0.62-0.958,1.377-1.247,2.27
	c-0.29,0.895-0.435,1.898-0.435,3.015c0,1.126,0.145,2.136,0.435,3.03c0.289,0.893,0.704,1.65,1.247,2.27
	c0.543,0.62,1.209,1.092,1.998,1.418c0.791,0.325,1.692,0.488,2.704,0.488c1.002,0,1.896-0.163,2.682-0.488
	c0.785-0.326,1.448-0.798,1.992-1.418c0.542-0.619,0.958-1.377,1.247-2.27C95.309,66.699,95.454,65.689,95.454,64.563"/>
<path fill="#FFFFFF" d="M122.087,75.86h-4.742c-0.879,0-1.509-0.33-1.891-0.991l-3.75-6.555c-0.176-0.279-0.372-0.482-0.589-0.613
	c-0.217-0.129-0.527-0.193-0.931-0.193h-1.332v8.353h-5.237V53.282h7.345c1.632,0,3.024,0.168,4.176,0.503
	c1.152,0.336,2.092,0.805,2.821,1.403c0.728,0.599,1.257,1.308,1.588,2.123s0.496,1.705,0.496,2.665
	c0,0.734-0.098,1.426-0.295,2.076c-0.196,0.652-0.485,1.254-0.867,1.806c-0.383,0.554-0.854,1.046-1.418,1.479
	c-0.562,0.435-1.212,0.791-1.945,1.069c0.342,0.177,0.661,0.396,0.962,0.659c0.299,0.264,0.567,0.576,0.806,0.938L122.087,75.86z
	 M110.96,63.897c0.713,0,1.32-0.09,1.821-0.271c0.501-0.182,0.911-0.432,1.231-0.752s0.553-0.695,0.697-1.125
	c0.146-0.428,0.217-0.891,0.217-1.386c0-0.991-0.322-1.767-0.968-2.325c-0.646-0.558-1.646-0.836-2.999-0.836h-2.107v6.694H110.96z"
	/>
<polygon fill="#FFFFFF" points="137.214,71.677 137.214,75.861 123.608,75.861 123.608,53.283 128.846,53.283 128.846,71.677 "/>
<path fill="#FFFFFF" d="M160.713,75.861h-4.06c-0.455,0-0.822-0.106-1.102-0.318c-0.278-0.212-0.49-0.482-0.635-0.814l-1.333-3.936
	h-8.585l-1.332,3.936c-0.113,0.291-0.317,0.551-0.612,0.783c-0.294,0.232-0.658,0.35-1.093,0.35h-4.091l8.74-22.579h5.362
	L160.713,75.861z M152.392,67.229l-2.093-6.183c-0.154-0.393-0.319-0.854-0.495-1.387c-0.177-0.532-0.352-1.108-0.527-1.728
	c-0.155,0.629-0.32,1.213-0.496,1.75c-0.175,0.537-0.341,1.002-0.496,1.396l-2.076,6.151H152.392z"/>
<path fill="#FFFFFF" d="M181.897,53.282v22.579h-2.729c-0.402,0-0.741-0.065-1.014-0.194c-0.274-0.129-0.546-0.354-0.814-0.674
	l-10.646-13.467c0.041,0.403,0.068,0.793,0.085,1.17c0.015,0.377,0.022,0.731,0.022,1.062v12.104h-4.618V53.282h2.76
	c0.227,0,0.418,0.01,0.572,0.03c0.155,0.021,0.294,0.06,0.418,0.117c0.124,0.057,0.243,0.137,0.357,0.239
	c0.113,0.104,0.242,0.243,0.387,0.419l10.739,13.559c-0.051-0.434-0.088-0.854-0.108-1.262s-0.03-0.793-0.03-1.154V53.282H181.897z"
	/>
<path fill="#FFFFFF" d="M206.443,64.563c0,1.633-0.281,3.138-0.844,4.517c-0.564,1.381-1.356,2.573-2.379,3.58
	c-1.023,1.008-2.255,1.793-3.696,2.356c-1.442,0.563-3.04,0.844-4.797,0.844h-8.771V53.283h8.771c1.757,0,3.354,0.283,4.797,0.852
	c1.441,0.568,2.673,1.353,3.696,2.355c1.022,1.002,1.814,2.192,2.379,3.571C206.162,61.44,206.443,62.941,206.443,64.563
	 M201.081,64.563c0-1.116-0.145-2.123-0.434-3.022c-0.289-0.898-0.705-1.66-1.247-2.285c-0.543-0.625-1.206-1.105-1.992-1.441
	c-0.785-0.335-1.679-0.503-2.681-0.503h-3.502v14.521h3.502c1.002,0,1.896-0.168,2.681-0.504c0.786-0.336,1.449-0.816,1.992-1.441
	c0.542-0.625,0.958-1.387,1.247-2.286C200.937,66.703,201.081,65.689,201.081,64.563"/>
<path fill="#FFFFFF" d="M231.377,64.563c0,1.633-0.281,3.151-0.845,4.556c-0.562,1.405-1.355,2.627-2.378,3.666
	c-1.023,1.037-2.255,1.852-3.696,2.44s-3.041,0.883-4.797,0.883s-3.356-0.294-4.804-0.883c-1.446-0.589-2.683-1.403-3.711-2.44
	c-1.028-1.039-1.824-2.261-2.388-3.666c-0.562-1.404-0.844-2.923-0.844-4.556c0-1.632,0.281-3.151,0.844-4.556
	c0.563-1.405,1.359-2.625,2.388-3.657c1.028-1.033,2.265-1.845,3.711-2.433c1.447-0.59,3.048-0.885,4.804-0.885
	s3.355,0.299,4.797,0.891c1.441,0.596,2.673,1.408,3.696,2.441c1.022,1.034,1.815,2.254,2.378,3.658
	C231.096,61.429,231.377,62.941,231.377,64.563 M226.016,64.563c0-1.116-0.146-2.12-0.435-3.015
	c-0.289-0.893-0.705-1.649-1.248-2.27c-0.542-0.619-1.205-1.095-1.99-1.426c-0.785-0.33-1.68-0.496-2.682-0.496
	c-1.012,0-1.914,0.166-2.704,0.496c-0.79,0.331-1.457,0.807-1.999,1.426c-0.542,0.62-0.958,1.377-1.247,2.27
	c-0.289,0.895-0.434,1.898-0.434,3.015c0,1.126,0.145,2.136,0.434,3.03c0.289,0.893,0.705,1.65,1.247,2.27
	c0.542,0.62,1.209,1.092,1.999,1.418c0.79,0.325,1.692,0.488,2.704,0.488c1.002,0,1.896-0.163,2.682-0.488
	c0.785-0.326,1.448-0.798,1.99-1.418c0.543-0.619,0.959-1.377,1.248-2.27C225.87,66.699,226.016,65.689,226.016,64.563"/>
<g>
	<path id="SVGID_1_" fill="#FFFFFF" d="M4.763,47.98c0-15.462,12.536-27.999,27.999-27.999c15.464,0,28,12.537,28,27.999c0,15.464-12.536,28-28,28
			C17.299,75.98,4.763,63.444,4.763,47.98 M32.683,6.088c-1.905,2.085-2.561,4.168-2.628,5.974l-1.894-4.399
			c-0.25-0.587-0.613-1.031-1.096-1.333c-0.479-0.302-1.03-0.441-1.655-0.417l-2.256,0.085l4.142,9.683
			C11.806,18.285,0,31.751,0,47.98c0,18.095,14.669,32.763,32.762,32.763c18.095,0,32.763-14.668,32.763-32.763
			c0-15.179-10.326-27.943-24.335-31.662c0.52-0.432,1.033-0.943,1.532-1.554C47.611,8.778,46.712,0,46.712,0
			S37.896,0.382,32.683,6.088"/>
</g>
<g>
	<path id="SVGID_4_" fill="#FFFFFF" d="M37.843,34.64c-0.619,0-1.162,0.154-1.631,0.463c-0.469,0.309-0.818,0.755-1.047,1.338l-9.749,25.59h2.267
			c0.274,0,0.55-0.04,0.831-0.12s0.544-0.2,0.79-0.36s0.468-0.359,0.669-0.602c0.201-0.239,0.364-0.514,0.49-0.823l9.645-25.486
			H37.843z"/>
</g>
<g>
	<path id="SVGID_7_" fill="#FFFFFF" d="M41.19,44.131c0,0.264,0.068,0.506,0.205,0.729c0.139,0.223,0.355,0.415,0.653,0.575l6.656,3.328
			l-6.656,3.313c-0.298,0.16-0.515,0.349-0.653,0.565c-0.137,0.219-0.205,0.459-0.205,0.722v3.69l13.901-7.26v-2.076L41.19,40.441
			V44.131z"/>
</g>
<g>
	<path id="SVGID_10_" fill="#FFFFFF" d="M10.433,47.719v2.076l13.902,7.26v-3.69c0-0.263-0.069-0.503-0.207-0.722
			c-0.137-0.217-0.354-0.405-0.652-0.565l-6.656-3.313l6.656-3.328c0.298-0.16,0.516-0.353,0.652-0.575
			c0.138-0.224,0.207-0.466,0.207-0.729v-3.689L10.433,47.719z"/>
</g>
</svg>
