<?xml version="1.0" encoding="UTF-8" standalone="no"?>
<!DOCTYPE svg PUBLIC "-//W3C//DTD SVG 1.1//EN" "http://www.w3.org/Graphics/SVG/1.1/DTD/svg11.dtd">
<svg width="100%" height="100%" viewBox="0 0 66 81" version="1.1" xmlns="http://www.w3.org/2000/svg" xmlns:xlink="http://www.w3.org/1999/xlink" xml:space="preserve" xmlns:serif="http://www.serif.com/" style="fill-rule:evenodd;clip-rule:evenodd;stroke-linejoin:round;stroke-miterlimit:2;">
    <path id="SVGID_1_" d="M4.763,47.98C4.763,32.518 17.299,19.981 32.762,19.981C48.226,19.981 60.762,32.518 60.762,47.98C60.762,63.444 48.226,75.98 32.762,75.98C17.299,75.98 4.763,63.444 4.763,47.98M32.683,6.088C30.778,8.173 30.122,10.256 30.055,12.062L28.161,7.663C27.911,7.076 27.548,6.632 27.065,6.33C26.586,6.028 26.035,5.889 25.41,5.913L23.154,5.998L27.296,15.681C11.806,18.285 0,31.751 0,47.98C0,66.075 14.669,80.743 32.762,80.743C50.857,80.743 65.525,66.075 65.525,47.98C65.525,32.801 55.199,20.037 41.19,16.318C41.71,15.886 42.223,15.375 42.722,14.764C47.611,8.778 46.712,0 46.712,0C46.712,0 37.896,0.382 32.683,6.088" style="fill:rgb(255,255,255);fill-rule:nonzero;"/>
    <g>
        <path id="SVGID_4_" d="M37.843,34.64C37.224,34.64 36.681,34.794 36.212,35.103C35.743,35.412 35.394,35.858 35.165,36.441L25.416,62.031L27.683,62.031C27.957,62.031 28.233,61.991 28.514,61.911C28.795,61.831 29.058,61.711 29.304,61.551C29.55,61.391 29.772,61.192 29.973,60.949C30.174,60.71 30.337,60.435 30.463,60.126L40.108,34.64L37.843,34.64Z" style="fill:rgb(255,255,255);fill-rule:nonzero;"/>
    </g>
    <g>
        <path id="SVGID_7_" d="M41.19,44.131C41.19,44.395 41.258,44.637 41.395,44.86C41.534,45.083 41.75,45.275 42.048,45.435L48.704,48.763L42.048,52.076C41.75,52.236 41.533,52.425 41.395,52.641C41.258,52.86 41.19,53.1 41.19,53.363L41.19,57.053L55.091,49.793L55.091,47.717L41.19,40.441L41.19,44.131Z" style="fill:rgb(255,255,255);fill-rule:nonzero;"/>
    </g>
    <g>
        <path id="SVGID_10_" d="M10.433,47.719L10.433,49.795L24.335,57.055L24.335,53.365C24.335,53.102 24.266,52.862 24.128,52.643C23.991,52.426 23.774,52.238 23.476,52.078L16.82,48.765L23.476,45.437C23.774,45.277 23.992,45.084 24.128,44.862C24.266,44.638 24.335,44.396 24.335,44.133L24.335,40.444L10.433,47.719Z" style="fill:rgb(255,255,255);fill-rule:nonzero;"/>
    </g>
</svg>
