<?xml version="1.0" encoding="UTF-8" standalone="no"?>
<!DOCTYPE svg PUBLIC "-//W3C//DTD SVG 1.1//EN" "http://www.w3.org/Graphics/SVG/1.1/DTD/svg11.dtd">
<svg width="100%" height="100%" viewBox="0 0 509 499" version="1.1" xmlns="http://www.w3.org/2000/svg" xmlns:xlink="http://www.w3.org/1999/xlink" xml:space="preserve" xmlns:serif="http://www.serif.com/" style="fill-rule:evenodd;clip-rule:evenodd;stroke-linejoin:round;stroke-miterlimit:2;">
    <g transform="matrix(1,0,0,1,-234.159,-267.435)">
        <g transform="matrix(1,0,0,1,560.911,409.84)">
            <path d="M0,219.766C-22.532,208.723 -36.21,183.493 -30.364,158.58C-25.997,139.941 15.654,63.836 17.219,52.14C18.81,40.212 12.439,39.189 8.459,38.992C3.326,38.725 -0.723,41.226 -5.76,48.823C-10.342,55.749 -62.146,159.465 -66.642,167.938C-74.68,183.089 -84.798,186.742 -94.96,186.2C-109.78,185.426 -116.563,177.486 -114.423,163.212C-113.159,154.816 -80.311,80.619 -78.609,69.043C-77.56,61.885 -78.979,54.288 -86.079,50.645C-93.189,47.001 -101.57,52.587 -104.081,56.815C-107.545,62.65 -154.123,184.275 -159.083,193.281C-167.662,208.878 -176.697,213.836 -190.28,214.481C-222.406,216.002 -246.228,189.594 -235.722,157.197C-231.037,142.768 -200.098,33.371 -184.426,5.529C-173.895,-13.188 -144.649,-27.402 -124.369,-18.628C-113.864,-14.082 -99.31,-6.812 -95.011,-4.913C-85.099,-0.521 -74.465,-12.423 -70.278,-16.067C-66.083,-19.711 -62.077,-23.535 -56.971,-25.727C-51.873,-27.909 -43.853,-28.82 -37.654,-27.909C-31.464,-26.999 -27.768,-24.661 -25.446,-22.804C-20.891,-19.17 -18.045,-16.299 -13.738,-12.2C-7.256,-6.039 -2.588,-9.768 0.661,-11.651C6.292,-14.924 10.694,-17.58 27.354,-17.279C44.505,-16.978 64.217,-10.851 68.31,18.393C72.865,50.876 15.121,134.552 19.161,173.378C22.016,200.741 68.267,181.482 72.178,206.454C77.25,238.87 14.373,226.804 0,219.766M169.222,27.402C160.212,14.623 147.464,6.236 133.554,2.094C135.591,-24.555 128.937,-52.02 112.552,-75.721C80.615,-121.92 22.304,-138.867 -28.142,-120.58C-73.214,-149.445 -132.833,-150.657 -179.625,-118.337C-203.309,-101.975 -220.184,-79.477 -229.692,-54.469C-243.464,-52.605 -257.046,-47.998 -269.271,-39.551C-309.676,-11.639 -320.335,42.776 -294.7,84.034C-329.491,115.89 -337.512,168.929 -311.077,209.904C-295.396,234.198 -270.767,248.832 -244.315,253.181C-243.825,273.006 -237.876,292.917 -225.754,310.449C-192.605,358.409 -126.832,370.423 -78.862,337.286C-77.031,336.014 -75.613,334.408 -73.885,333.049C-47.149,356.906 -7.011,360.841 23.773,339.572C40.202,328.229 50.707,311.72 55.289,293.786C79.377,294.67 103.904,288.552 125.258,273.796C176.486,238.409 190.232,169.213 157.462,117.007C183.768,94.827 189.433,56.036 169.222,27.402" style="fill:white;fill-rule:nonzero;"/>
        </g>
    </g>
</svg>
