<?xml version="1.0" encoding="UTF-8" standalone="no"?>
<!DOCTYPE svg PUBLIC "-//W3C//DTD SVG 1.1//EN" "http://www.w3.org/Graphics/SVG/1.1/DTD/svg11.dtd">
<svg width="100%" height="100%" viewBox="0 0 463 370" version="1.1" xmlns="http://www.w3.org/2000/svg" xmlns:xlink="http://www.w3.org/1999/xlink" xml:space="preserve" xmlns:serif="http://www.serif.com/" style="fill-rule:evenodd;clip-rule:evenodd;stroke-linejoin:round;stroke-miterlimit:2;">
    <g transform="matrix(1,0,0,1,-218.873,-115.097)">
        <g transform="matrix(1,0,0,1,421.777,315.512)">
            <path d="M180.6,-163.7C230.6,-130.6 265.3,-65.3 258.5,-6.8C251.6,51.6 203.2,103.2 153.2,128.2C103.2,153.2 51.6,151.6 -6.8,158.5C-65.3,165.3 -130.6,180.6 -164.4,155.6C-198.2,130.6 -200.6,65.3 -202.3,-1.6C-203.9,-68.6 -204.8,-137.2 -171,-170.3C-137.2,-203.5 -68.6,-201.3 -1.6,-199.6C65.3,-198 130.6,-196.9 180.6,-163.7" style="fill:rgb(247,179,52);fill-rule:nonzero;"/>
        </g>
    </g>
</svg>
