<?xml version="1.0" encoding="UTF-8" standalone="no"?>
<!DOCTYPE svg PUBLIC "-//W3C//DTD SVG 1.1//EN" "http://www.w3.org/Graphics/SVG/1.1/DTD/svg11.dtd">
<svg width="100%" height="100%" viewBox="0 0 289 130" version="1.1" xmlns="http://www.w3.org/2000/svg" xmlns:xlink="http://www.w3.org/1999/xlink" xml:space="preserve" xmlns:serif="http://www.serif.com/" style="fill-rule:evenodd;clip-rule:evenodd;stroke-linejoin:round;stroke-miterlimit:2;">
    <g transform="matrix(1,0,0,1,0.0163863,0)">
        <g transform="matrix(1,0,0,1,-293.249,-133.118)">
            <g transform="matrix(1,0,0,1,293.249,133.118)">
                <path d="M288.026,0.163C290.574,16.98 280.869,37.505 265.213,49.737C244.38,65.875 212.934,67.453 190.188,68.37C167.367,69.371 153.238,69.552 128.591,80.19C103.86,90.754 68.612,111.777 45.593,106.592C22.491,101.334 11.626,70.027 4.926,37.924C2.269,25.064 0.272,12.09 0.004,0.163L-0.016,0.163L-0.016,129.834L288.824,129.834L288.824,0.163L288.026,0.163Z" style="fill:#2b1a78;"/>
            </g>
        </g>
        <g transform="matrix(1,0,0,1,-293.249,-133.118)">
            <path d="M306.917,133.118L293.249,133.118C293.503,145.091 295.506,158.124 298.175,171.042C304.875,203.145 315.74,234.452 338.842,239.71C361.861,244.895 397.109,223.872 421.84,213.308C446.487,202.67 460.616,202.489 483.437,201.488C506.183,200.571 537.629,198.993 558.462,182.855C574.168,170.584 583.885,149.966 581.251,133.118L563.721,133.118C566.32,148.135 557.867,166.696 543.955,177.836C525.552,192.445 497.533,194.186 477.264,195.246C456.929,196.38 444.333,196.692 422.472,206.439C400.536,216.12 369.334,235.237 348.757,230.86C328.104,226.417 318.084,198.621 311.769,170.07C309,157.426 306.947,144.648 306.917,133.118Z" style="fill:rgb(255,180,70);fill-rule:nonzero;"/>
        </g>
        <g transform="matrix(1,0,0,1,-293.249,-133.118)">
            <path d="M573.603,133.118L563.721,133.118C566.32,148.135 557.867,166.696 543.955,177.836L543.7,178.036C547.86,175.641 551.748,172.862 555.232,169.624C565.593,159.914 572.404,146.092 573.603,133.118ZM306.917,133.118L296.826,133.118C296.666,147.59 300.476,164.305 305.433,180.713C314.598,210.821 327.674,239.81 350.208,242.85C372.655,245.825 404.537,222.702 427.267,210.478C445.673,200.49 458.031,197.704 473.68,195.443C455.384,196.452 443.022,197.276 422.472,206.439C400.536,216.12 369.334,235.237 348.757,230.86C328.104,226.417 318.084,198.621 311.769,170.07C309,157.426 306.947,144.648 306.917,133.118Z" style="fill:rgb(0,97,82);fill-rule:nonzero;"/>
        </g>
    </g>
</svg>
